HIERARCHY
ROOT Hips
{
	OFFSET 0.000000 8.830580 0.000000
	CHANNELS 6 Xposition Yposition Zposition Zrotation Yrotation Xrotation 
	JOINT Spine
	{
		OFFSET 0.000000 0.010000 0.000000
		CHANNELS 3 Zrotation Yrotation Xrotation
		JOINT Spine1
		{
			OFFSET 0.000000 2.459130 0.000000
			CHANNELS 3 Zrotation Yrotation Xrotation
			JOINT Neck
			{
				OFFSET 0.000000 2.484630 0.000000
				CHANNELS 3 Zrotation Yrotation Xrotation
				JOINT Head_virtual
				{
					OFFSET 0.000000 0.000000 0.000000
					CHANNELS 3 Zrotation Yrotation Xrotation
					JOINT Head
					{
						OFFSET 0.000000 0.927525 0.000000
						CHANNELS 3 Zrotation Yrotation Xrotation
						End Site
						{
							OFFSET 0.000000 0.000000 0.000000
						}
					}
				}
				JOINT LeftUpArm_virtual
				{
					OFFSET 0.000000 0.000000 0.000000
					CHANNELS 3 Zrotation Yrotation Xrotation
					JOINT LeftUpArm
					{
						OFFSET 1.248820 0.000000 0.000000
						CHANNELS 3 Zrotation Yrotation Xrotation
						JOINT LeftForeArm
						{
							OFFSET 2.597580 0.000000 0.000000
							CHANNELS 3 Zrotation Yrotation Xrotation
							JOINT LeftHand
							{
								OFFSET 2.455420 0.000000 0.000000
								CHANNELS 3 Zrotation Yrotation Xrotation
								End Site
								{
									OFFSET 0.000000 0.000000 0.000000
								}
							}
						}
					}
				}
				JOINT RightUpArm_virtual
				{
					OFFSET -0.000000 -0.000000 -0.000000
					CHANNELS 3 Zrotation Yrotation Xrotation
					JOINT RightUpArm
					{
						OFFSET -1.248820 -0.000000 -0.000000
						CHANNELS 3 Zrotation Yrotation Xrotation
						JOINT RightForeArm
						{
							OFFSET -2.597580 -0.000000 -0.000000
							CHANNELS 3 Zrotation Yrotation Xrotation
							JOINT RightHand
							{
								OFFSET -2.455420 -0.000000 -0.000000
								CHANNELS 3 Zrotation Yrotation Xrotation
								End Site
								{
									OFFSET 0.000000 0.000000 0.000000
								}
							}
						}
					}
				}
			}
		}
	}
	JOINT LeftUpLeg
	{
		OFFSET 1.271939 0.000000 0.000000
		CHANNELS 3 Zrotation Yrotation Xrotation
		JOINT LeftLowLeg
		{
			OFFSET 0.000000 -4.342910 0.000000
			CHANNELS 3 Zrotation Yrotation Xrotation
			JOINT LeftFoot
			{
				OFFSET 0.000000 -4.487670 0.000000
				CHANNELS 3 Zrotation Yrotation Xrotation
				JOINT LeftToeBase
				{
					OFFSET 0.000000 0.000000 1.515070
					CHANNELS 3 Zrotation Yrotation Xrotation
					End Site
					{
						OFFSET 0.000000 0.000000 0.000000
					}
				}
			}
		}
	}
	JOINT RightUpLeg
	{
		OFFSET -1.271939 0.000000 0.000000
		CHANNELS 3 Zrotation Yrotation Xrotation
		JOINT RightLowLeg
		{
			OFFSET 0.000000 -4.342910 0.000000
			CHANNELS 3 Zrotation Yrotation Xrotation
			JOINT RightFoot
			{
				OFFSET 0.000000 -4.487670 0.000000
				CHANNELS 3 Zrotation Yrotation Xrotation
				JOINT RightToeBase
				{
					OFFSET 0.000000 0.000000 1.515070
					CHANNELS 3 Zrotation Yrotation Xrotation
					End Site
					{
						OFFSET 0.000000 0.000000 0.000000
					}
				}
			}
		}
	}
}
MOTION
Frames: 17
Frame Time: 0.041667
-17.398087 9.187690 44.963870 -174.699853 4.473478 -170.655535 6.026531 -3.309981 -15.439998 -1.969720 -3.349800 3.442108 0.000000 0.000000 0.000000 12.459153 -1.975642 2.532725 -5.417332 19.140765 -44.516989 -12.773700 5.795920 4.829010 -36.108501 -13.073200 21.693001 0.000000 -42.606602 0.000000 14.611100 8.838000 23.021799 10.444200 -6.732820 -5.936060 -11.421200 42.768700 -69.281898 180.000000 38.220993 180.000000 -45.141300 11.542000 3.145690 7.436278 0.005314 -7.739380 0.000000 0.000000 6.978820 8.510812 -1.295407 4.588175 0.000000 0.000000 -32.676300 2.908308 3.745440 -5.545331 0.000000 0.000000 4.724580 6.985205 -7.467479 10.461604 0.000000 0.000000 -27.128500 
-17.407289 9.186344 44.961082 -174.700089 4.607211 -170.594741 6.193205 -3.251250 -15.168199 -2.366354 -3.382881 2.856632 0.000000 0.000000 0.000000 12.734439 -1.994269 2.564402 -5.270424 19.514533 -44.092461 -12.922700 5.658220 5.457650 -37.467602 -12.654400 25.536800 0.000000 -39.555199 0.000000 14.793200 9.259460 19.365999 10.589000 -6.785460 -5.556900 -11.141000 42.637501 -69.493896 -180.000000 38.056000 180.000000 -44.824600 10.942300 2.425940 7.368953 0.019028 -7.743121 0.000000 0.000000 6.971230 8.535051 -1.187421 4.535676 0.000000 0.000000 -32.647800 2.841205 3.683333 -5.605155 0.000000 0.000000 4.720690 7.017873 -7.302664 10.458063 0.000000 0.000000 -27.120900 
-17.416335 9.186242 44.958990 -174.701947 4.854698 -170.609177 6.190023 -3.311349 -15.100511 -2.391660 -3.438303 2.925911 0.000000 0.000000 0.000000 12.929683 -1.974583 2.339916 -5.744966 20.006315 -44.161507 -13.303800 5.665240 5.592530 -38.892300 -12.107100 29.633101 0.000000 -36.798901 0.000000 14.285400 9.370310 19.377800 10.621000 -6.647580 -5.611540 -10.945200 42.606998 -69.282097 -180.000000 38.063995 -180.000000 -45.463299 11.598900 2.906700 7.287776 0.084646 -7.633068 0.000000 0.000000 6.937620 8.565861 -1.041257 4.530350 0.000000 0.000000 -32.615999 2.747274 3.877317 -5.632484 0.000000 0.000000 4.759920 7.067619 -7.264797 10.479969 0.000000 0.000000 -27.106800 
-17.426431 9.185853 44.957845 -174.700822 5.044686 -170.503104 6.220362 -3.320089 -15.117177 -2.457775 -3.459311 2.917541 0.000000 0.000000 0.000000 12.984945 -1.860853 2.204027 -5.884796 20.299054 -44.302159 -13.667900 5.524670 5.731170 -40.346100 -11.403700 33.489601 0.000000 -34.383598 0.000000 13.768900 9.451680 16.533400 10.686100 -6.566660 -5.611060 -10.872900 42.479301 -69.225098 180.000000 37.977005 -180.000000 -45.889198 11.825700 3.154210 7.207592 0.125317 -7.688589 0.000000 0.000000 6.951830 8.622335 -0.883228 4.506837 0.000000 0.000000 -32.610100 2.645574 4.092210 -5.778573 0.000000 0.000000 4.798220 7.143731 -7.284083 10.471813 0.000000 0.000000 -27.095000 
-17.436386 9.185276 44.954679 -174.690890 5.353888 -170.451258 6.244360 -3.219794 -15.083676 -2.532706 -3.375300 2.870183 0.000000 0.000000 0.000000 13.125033 -1.936728 2.016543 -5.948936 20.484935 -44.292394 -14.060600 5.317150 5.966540 -41.717499 -10.676800 37.119400 0.000000 -32.291599 0.000000 12.707000 9.376260 13.498300 10.755200 -6.487450 -5.582110 -10.804100 42.231701 -69.256104 -180.000000 37.914001 -180.000000 -45.984001 12.141800 3.549090 7.113700 0.319447 -7.618799 0.000000 0.000000 6.915930 8.665055 -0.780005 4.459814 0.000000 0.000000 -32.583799 2.542244 4.358455 -5.866234 0.000000 0.000000 4.826940 7.187828 -7.256102 10.479008 0.000000 0.000000 -27.078800 
-17.446660 9.184565 44.953401 -174.684326 5.573984 -170.471432 6.309157 -3.108687 -14.942400 -2.703628 -3.299993 2.800538 0.000000 0.000000 0.000000 13.306363 -1.965469 1.906854 -6.203411 20.754576 -44.703465 -14.509900 5.120480 6.197030 -42.876499 -9.892240 40.152802 0.000000 -30.712799 0.000000 11.002000 9.489760 10.996600 10.840800 -6.585510 -5.617440 -10.653600 42.140099 -69.176300 -180.000000 37.860001 -180.000000 -46.128101 12.409600 3.731740 7.032727 0.394007 -7.553079 0.000000 0.000000 6.958110 8.714257 -0.646361 4.406081 0.000000 0.000000 -32.573900 2.454194 4.523669 -5.898941 0.000000 0.000000 4.889090 7.215776 -7.217582 10.464583 0.000000 0.000000 -27.044200 
-17.455676 9.183940 44.948010 -174.694800 5.884005 -170.482865 6.293663 -3.054115 -14.967555 -2.747333 -3.237096 2.938803 0.000000 0.000000 0.000000 13.244895 -1.872019 1.715885 -6.090068 20.875742 -44.346791 -14.958800 4.955420 6.439110 -44.172798 -8.928260 41.577202 0.000000 -29.399300 0.000000 8.613500 9.720610 9.257980 10.878500 -6.514970 -5.505200 -10.665000 42.039398 -69.282097 -180.000000 37.869003 180.000000 -46.323799 12.736700 3.674540 6.920385 0.590302 -7.404695 0.000000 0.000000 6.910580 8.762583 -0.539230 4.369994 0.000000 0.000000 -32.560600 2.341050 4.730764 -5.933717 0.000000 0.000000 4.961420 7.261576 -7.123947 10.445855 0.000000 0.000000 -27.075500 
-17.464487 9.183740 44.944053 -174.710520 6.082285 -170.460062 6.343602 -2.971393 -14.968995 -2.998141 -3.175962 3.040354 0.000000 0.000000 0.000000 13.504733 -1.879914 1.640424 -6.432586 21.312073 -44.578591 -15.259900 4.861630 6.824240 -45.485600 -8.131450 41.969299 0.000000 -28.196800 0.000000 6.253800 10.062300 7.696210 10.936800 -6.491930 -5.773060 -10.214100 41.883099 -69.024101 180.000000 37.699005 -180.000000 -46.297901 12.484000 3.717440 6.806780 0.851446 -7.370948 0.000000 0.000000 6.939760 8.845557 -0.572397 4.327416 0.000000 0.000000 -32.590200 2.231672 4.984163 -5.986067 0.000000 0.000000 5.002850 7.324128 -7.179202 10.427474 0.000000 0.000000 -27.093800 
-17.472314 9.183457 44.941094 -174.720824 6.256986 -170.404582 6.412781 -2.851965 -14.992304 -3.305656 -3.089767 3.073762 0.000000 0.000000 0.000000 13.703657 -1.937822 1.534335 -6.436339 21.548746 -44.619612 -15.515700 4.749760 7.040190 -46.678501 -7.224220 42.064999 0.000000 -27.204000 0.000000 4.095920 10.488500 6.016930 11.068500 -6.556490 -5.573780 -10.224900 41.795799 -69.190102 180.000000 37.639008 180.000000 -46.522499 12.556300 3.541280 6.717032 0.995870 -7.350406 0.000000 0.000000 6.910320 8.893910 -0.528073 4.311283 0.000000 0.000000 -32.567699 2.138609 5.124476 -6.095887 0.000000 0.000000 5.088840 7.364226 -7.138913 10.406401 0.000000 0.000000 -27.109700 
-17.479048 9.183004 44.938465 -174.724673 6.343758 -170.335605 6.370222 -2.843968 -15.064693 -3.339918 -3.061861 3.138124 0.000000 0.000000 0.000000 13.609319 -1.791600 1.490886 -6.260637 21.573654 -44.677722 -15.823200 4.823410 7.115290 -47.787899 -6.423830 42.196999 0.000000 -26.441900 0.000000 2.644000 10.815300 4.544920 10.916300 -6.683550 -5.107390 -10.256700 41.812099 -69.544800 180.000000 37.537003 180.000000 -46.559502 12.796800 3.667020 6.656874 1.077765 -7.385724 0.000000 0.000000 6.917290 8.934952 -0.517890 4.279976 0.000000 0.000000 -32.577600 2.072901 5.192022 -6.182686 0.000000 0.000000 5.123300 7.417423 -7.118830 10.390628 0.000000 0.000000 -27.115100 
-17.485551 9.182884 44.935340 -174.720661 6.447783 -170.318177 6.396786 -2.738229 -15.068712 -3.542408 -2.970423 3.191743 0.000000 0.000000 0.000000 13.737472 -1.811170 1.488987 -6.307751 21.719661 -44.830141 -15.895500 4.979750 7.013240 -48.880001 -5.607230 42.041000 0.000000 -26.078100 0.000000 1.885900 11.159300 3.343920 10.966600 -6.783110 -5.116240 -10.210100 41.737900 -69.505600 180.000000 37.466995 180.000000 -46.703201 12.979200 3.986850 6.600202 1.206911 -7.362182 0.000000 0.000000 6.924240 8.984929 -0.532420 4.242084 0.000000 0.000000 -32.570400 2.017086 5.277187 -6.208136 0.000000 0.000000 5.145420 7.422432 -7.101709 10.387464 0.000000 0.000000 -27.092700 
-17.491388 9.182660 44.933450 -174.719812 6.548870 -170.323907 6.383837 -2.646400 -15.075258 -3.685538 -2.874400 3.280552 0.000000 0.000000 0.000000 13.728867 -1.807800 1.399840 -6.044164 21.687936 -44.783656 -15.843600 5.172350 6.882280 -49.953602 -4.816900 41.408199 0.000000 -26.002501 0.000000 2.311640 11.467900 -0.192763 11.013300 -6.859420 -5.167310 -10.181500 41.782299 -69.519302 180.000000 37.438995 180.000000 -46.739498 13.108300 4.356080 6.540322 1.390039 -7.334000 0.000000 0.000000 6.945600 9.037990 -0.598196 4.203930 0.000000 0.000000 -32.600700 1.967152 5.331669 -6.219243 0.000000 0.000000 5.171620 7.455416 -7.057522 10.379978 0.000000 0.000000 -27.070800 
-17.496531 9.182638 44.931879 -174.720851 6.652879 -170.351359 6.341710 -2.540282 -15.018706 -3.778364 -2.756975 3.286518 0.000000 0.000000 0.000000 13.795544 -1.850545 1.431907 -6.060364 21.706714 -44.864005 -15.740700 5.414460 6.782160 -50.907001 -4.055020 40.833302 0.000000 -26.211300 0.000000 2.869200 11.791600 -1.214140 11.096100 -6.973810 -5.185370 -10.287600 41.809601 -69.576401 180.000000 37.464005 180.000000 -46.643101 13.195700 4.324850 6.480720 1.579162 -7.266125 0.000000 0.000000 6.929480 9.077687 -0.671964 4.186288 0.000000 0.000000 -32.624001 1.912096 5.553176 -6.216881 0.000000 0.000000 5.205660 7.488587 -7.173539 10.365341 0.000000 0.000000 -27.088300 
-17.500524 9.182780 44.929686 -174.713867 6.719050 -170.372164 6.279803 -2.452454 -14.971633 -3.817022 -2.650032 3.259610 0.000000 0.000000 0.000000 13.916164 -1.965456 1.535524 -6.279560 21.728831 -44.934508 -15.619300 5.676740 6.606030 -51.762199 -3.234570 40.061199 0.000000 -26.586500 0.000000 3.543410 11.920500 -3.390130 11.161300 -7.101980 -5.123120 -10.486400 41.900799 -69.670799 180.000000 37.520996 -180.000000 -46.720501 13.339200 4.298070 6.444144 1.732133 -7.202308 0.000000 0.000000 6.901060 9.108445 -0.743671 4.167452 0.000000 0.000000 -32.629601 1.883914 5.686933 -6.224988 0.000000 0.000000 5.268090 7.457685 -7.257438 10.344466 0.000000 0.000000 -27.074800 
-17.503823 9.182722 44.927826 -174.702399 6.780593 -170.356806 6.215405 -2.347734 -14.961552 -3.877897 -2.527385 3.193229 0.000000 0.000000 0.000000 13.925296 -2.070327 1.513511 -5.969120 21.563276 -44.734077 -15.401400 5.903370 6.501930 -52.512901 -2.471570 39.515999 0.000000 -27.208000 0.000000 4.508770 11.933300 -5.321800 11.209900 -7.174830 -5.056290 -10.515000 41.970200 -69.698402 180.000000 37.541000 180.000000 -46.643002 13.323900 4.552940 6.423730 1.786869 -7.174227 0.000000 0.000000 6.871040 9.122576 -0.731555 4.157439 0.000000 0.000000 -32.634399 1.861774 5.754325 -6.271971 0.000000 0.000000 5.328460 7.495550 -7.256134 10.343396 0.000000 0.000000 -27.088800 
-17.507314 9.183347 44.927671 -174.690041 6.809223 -170.262209 6.143831 -2.236411 -14.989985 -3.911250 -2.397837 3.061293 0.000000 0.000000 0.000000 13.983525 -2.109895 1.714468 -5.873094 21.496856 -44.700927 -15.187000 6.092550 6.403510 -53.088799 -1.794180 39.451199 0.000000 -28.007299 0.000000 5.449070 11.977400 -7.175730 11.273800 -7.280480 -4.953860 -10.589700 42.006001 -69.677002 180.000000 37.567001 180.000000 -46.608799 13.386200 4.638290 6.411101 1.751903 -7.269476 0.000000 0.000000 6.889770 9.150452 -0.649506 4.166868 0.000000 0.000000 -32.651300 1.833260 5.819284 -6.393394 0.000000 0.000000 5.365960 7.507245 -7.280255 10.368845 0.000000 0.000000 -27.111400 
-17.507676 9.183853 44.921779 -174.667825 6.881727 -170.241500 6.038488 -2.111821 -15.098799 -3.913859 -2.231524 3.132378 0.000000 0.000000 0.000000 14.026965 -2.156471 1.827142 -5.767282 21.432037 -44.669434 -14.950300 6.302200 6.325430 -53.494900 -1.300830 39.795898 0.000000 -28.985399 0.000000 6.080830 12.060800 -7.990600 11.325000 -7.458500 -4.964200 -10.557400 42.138401 -69.511200 180.000000 37.615997 180.000000 -46.650501 13.476000 4.702350 6.416445 1.803181 -7.204346 0.000000 0.000000 6.838170 9.169913 -0.620549 4.160244 0.000000 0.000000 -32.646200 1.843101 5.857028 -6.357022 0.000000 0.000000 5.306690 7.456491 -7.273448 10.421203 0.000000 0.000000 -27.134600 
